<svg width="76" height="69" viewBox="0 0 76 69" fill="none" xmlns="http://www.w3.org/2000/svg">
<g filter="url(#filter0_d_52_561)">
<path d="M0 17.1839C0 13.0083 3.41638 9.59195 7.59195 9.59195H18.9799L26.5718 2H49.3477L56.9396 9.59195H68.3275C70.341 9.59195 72.2721 10.3918 73.6958 11.8156C75.1196 13.2393 75.9195 15.1704 75.9195 17.1839V55.1436C75.9195 57.1571 75.1196 59.0882 73.6958 60.5119C72.2721 61.9357 70.341 62.7356 68.3275 62.7356H7.59195C5.57844 62.7356 3.6474 61.9357 2.22363 60.5119C0.799864 59.0882 0 57.1571 0 55.1436V17.1839ZM37.9597 55.1436C42.9935 55.1436 47.8211 53.144 51.3805 49.5845C54.9399 46.0251 56.9396 41.1975 56.9396 36.1638C56.9396 31.13 54.9399 26.3024 51.3805 22.743C47.8211 19.1835 42.9935 17.1839 37.9597 17.1839C32.926 17.1839 28.0984 19.1835 24.5389 22.743C20.9795 26.3024 18.9799 31.13 18.9799 36.1638C18.9799 41.1975 20.9795 46.0251 24.5389 49.5845C28.0984 53.144 32.926 55.1436 37.9597 55.1436ZM37.9597 47.5517C36.4642 47.5517 34.9834 47.2571 33.6018 46.6848C32.2201 46.1125 30.9647 45.2737 29.9073 44.2162C28.8498 43.1588 28.011 41.9034 27.4387 40.5217C26.8664 39.1401 26.5718 37.6592 26.5718 36.1638C26.5718 34.6683 26.8664 33.1874 27.4387 31.8058C28.011 30.4241 28.8498 29.1687 29.9073 28.1113C30.9647 27.0538 32.2201 26.215 33.6018 25.6427C34.9834 25.0704 36.4642 24.7758 37.9597 24.7758C40.98 24.7758 43.8766 25.9756 46.0122 28.1113C48.1479 30.2469 49.3477 33.1435 49.3477 36.1638C49.3477 39.184 48.1479 42.0806 46.0122 44.2162C43.8766 46.3519 40.98 47.5517 37.9597 47.5517Z" fill="#FF7620"/>
</g>
<defs>
<filter id="filter0_d_52_561" x="-4" y="0" width="83.9194" height="68.7356" filterUnits="userSpaceOnUse" color-interpolation-filters="sRGB">
<feFlood flood-opacity="0" result="BackgroundImageFix"/>
<feColorMatrix in="SourceAlpha" type="matrix" values="0 0 0 0 0 0 0 0 0 0 0 0 0 0 0 0 0 0 127 0" result="hardAlpha"/>
<feOffset dy="2"/>
<feGaussianBlur stdDeviation="2"/>
<feComposite in2="hardAlpha" operator="out"/>
<feColorMatrix type="matrix" values="0 0 0 0 0.465385 0 0 0 0 0.465385 0 0 0 0 0.465385 0 0 0 1 0"/>
<feBlend mode="normal" in2="BackgroundImageFix" result="effect1_dropShadow_52_561"/>
<feBlend mode="normal" in="SourceGraphic" in2="effect1_dropShadow_52_561" result="shape"/>
</filter>
</defs>
</svg>
