<svg width="74" height="74" viewBox="0 0 74 74" fill="none" xmlns="http://www.w3.org/2000/svg">
<path fill-rule="evenodd" clip-rule="evenodd" d="M36.6666 4.02869e-10C41.4818 -2.25706e-05 46.2497 0.94837 50.6984 2.79103C55.147 4.63369 59.1891 7.33453 62.5939 10.7393C65.9988 14.1442 68.6996 18.1863 70.5423 22.6349C72.385 27.0835 73.3334 31.8515 73.3334 36.6666C73.3334 56.9171 56.9171 73.3334 36.6666 73.3334C16.4163 73.3334 0 56.9171 0 36.6666C0 16.4163 16.4163 4.02869e-10 36.6666 4.02869e-10ZM40.3334 40.3334H33C23.9224 40.3334 16.1291 45.8312 12.7677 53.6791C18.0862 61.137 26.8085 66 36.6666 66C46.5247 66 55.247 61.137 60.5657 53.6786C57.2043 45.8312 49.411 40.3334 40.3334 40.3334ZM36.6666 11C30.5915 11 25.6666 15.9249 25.6666 22C25.6666 28.0751 30.5915 33 36.6666 33C42.7417 33 47.6666 28.0751 47.6666 22C47.6666 15.9249 42.7419 11 36.6666 11Z" fill="#FF7620"/>
</svg>
