<svg width="74" height="74" viewBox="0 0 74 74" fill="none" xmlns="http://www.w3.org/2000/svg">
<path fill-rule="evenodd" clip-rule="evenodd" d="M36.6666 0.666504C41.4818 0.666481 46.2497 1.61487 50.6984 3.45753C55.147 5.30019 59.1891 8.00103 62.5939 11.4058C65.9988 14.8107 68.6996 18.8528 70.5423 23.3014C72.385 27.75 73.3334 32.518 73.3334 37.3331C73.3334 57.5836 56.9171 73.9999 36.6666 73.9999C16.4163 73.9999 0 57.5836 0 37.3331C0 17.0828 16.4163 0.666504 36.6666 0.666504ZM40.3334 40.9999H33C23.9224 40.9999 16.1291 46.4977 12.7677 54.3456C18.0862 61.8035 26.8085 66.6665 36.6666 66.6665C46.5247 66.6665 55.247 61.8035 60.5657 54.3451C57.2043 46.4977 49.411 40.9999 40.3334 40.9999ZM36.6666 11.6665C30.5915 11.6665 25.6666 16.5914 25.6666 22.6665C25.6666 28.7416 30.5915 33.6665 36.6666 33.6665C42.7417 33.6665 47.6666 28.7416 47.6666 22.6665C47.6666 16.5914 42.7419 11.6665 36.6666 11.6665Z" fill="#0A4F6E"/>
</svg>
