<svg width="24" height="28" viewBox="0 0 24 28" fill="none" xmlns="http://www.w3.org/2000/svg">
<path d="M20.4854 3.51474C22.6885 5.71758 23.9485 8.6909 23.999 11.806C24.0496 14.921 22.8866 17.9336 20.7561 20.2067L20.4854 20.4867L14.8281 26.1427C14.1102 26.8601 13.1466 27.2778 12.1323 27.3112C11.118 27.3447 10.1289 26.9913 9.36541 26.3227L9.17341 26.1427L3.51474 20.4854C1.26429 18.235 0 15.1827 0 12.0001C0 8.81746 1.26429 5.76519 3.51474 3.51474C5.76519 1.26429 8.81746 0 12.0001 0C15.1827 0 18.235 1.26429 20.4854 3.51474ZM12.0001 8.00008C11.4748 8.00008 10.9546 8.10354 10.4693 8.30456C9.98404 8.50558 9.54308 8.80021 9.17165 9.17165C8.80021 9.54308 8.50557 9.98404 8.30456 10.4693C8.10354 10.9546 8.00007 11.4748 8.00007 12.0001C8.00007 12.5254 8.10354 13.0455 8.30456 13.5308C8.50557 14.0161 8.80021 14.4571 9.17165 14.8285C9.54308 15.1999 9.98404 15.4946 10.4693 15.6956C10.9546 15.8966 11.4748 16.0001 12.0001 16.0001C13.0609 16.0001 14.0784 15.5786 14.8285 14.8285C15.5786 14.0784 16.0001 13.0609 16.0001 12.0001C16.0001 10.9392 15.5786 9.92179 14.8285 9.17165C14.0784 8.4215 13.0609 8.00008 12.0001 8.00008Z" fill="white"/>
</svg>
