<svg width="46" height="53" viewBox="0 0 46 53" fill="none" xmlns="http://www.w3.org/2000/svg">
<g filter="url(#filter0_d_71_459)">
<path fill-rule="evenodd" clip-rule="evenodd" d="M8.93801 5.80615C12.6753 2.09725 17.7079 0.0126117 22.9546 5.70361e-05C28.2014 -0.0124977 33.2437 2.04804 36.9984 5.73901H37.0029L37.074 5.80615C44.9519 13.6106 44.9675 26.1464 37.1673 33.8725L24.5649 46.3569C24.1492 46.769 23.5893 47 23.006 47C22.4227 47 21.8628 46.769 21.4471 46.3569L8.84467 33.8725C6.99448 32.0507 5.52438 29.8749 4.5207 27.473C3.51702 25.071 3 22.4912 3 19.8852C3 17.2792 3.51702 14.6995 4.5207 12.2975C5.52438 9.89551 6.99448 7.71973 8.84467 5.89792L8.93801 5.80615ZM23.0004 11.1889C22.125 11.1889 21.258 11.3626 20.4492 11.7C19.6403 12.0374 18.9054 12.532 18.2863 13.1555C17.6673 13.779 17.1762 14.5192 16.8412 15.3338C16.5061 16.1485 16.3337 17.0216 16.3337 17.9033C16.3337 18.7851 16.5061 19.6582 16.8412 20.4728C17.1762 21.2875 17.6673 22.0277 18.2863 22.6512C18.9054 23.2747 19.6403 23.7692 20.4492 24.1067C21.258 24.4441 22.125 24.6178 23.0004 24.6178C24.7686 24.6178 26.4643 23.9104 27.7146 22.6512C28.9648 21.392 29.6672 19.6841 29.6672 17.9033C29.6672 16.1226 28.9648 14.4147 27.7146 13.1555C26.4643 11.8963 24.7686 11.1889 23.0004 11.1889Z" fill="#FF7620"/>
<path d="M22.9551 0.0996094C28.1753 0.0871789 33.1927 2.138 36.9287 5.81055L36.958 5.83887H36.9629L37.0049 5.87793C44.8427 13.6437 44.8566 26.1155 37.0967 33.8018L24.4941 46.2861C24.0971 46.6796 23.5625 46.9004 23.0059 46.9004C22.4492 46.9004 21.9146 46.6796 21.5176 46.2861L8.91504 33.8018V33.8008C7.07447 31.9884 5.61182 29.8242 4.61328 27.4346C3.61471 25.0448 3.09961 22.4776 3.09961 19.8848C3.09967 17.2921 3.61477 14.7255 4.61328 12.3359C5.61185 9.94627 7.07439 7.78116 8.91504 5.96875L9.00781 5.87793L9.00879 5.87695C12.7274 2.18667 17.7349 0.112101 22.9551 0.0996094ZM23 11.0889C22.1116 11.0889 21.2319 11.2651 20.4111 11.6074C19.5902 11.9499 18.8441 12.4523 18.2158 13.085C17.5875 13.7178 17.089 14.4692 16.749 15.2959C16.409 16.1226 16.2334 17.0085 16.2334 17.9033C16.2334 18.7981 16.409 19.684 16.749 20.5107C17.089 21.3375 17.5875 22.0889 18.2158 22.7217C18.8441 23.3544 19.5902 23.8567 20.4111 24.1992C21.2319 24.5415 22.1116 24.7177 23 24.7178C24.7948 24.7178 26.5162 23.9996 27.7852 22.7217C29.0541 21.4437 29.7676 19.7104 29.7676 17.9033C29.7676 16.0963 29.0541 14.363 27.7852 13.085C26.5162 11.8071 24.7948 11.0889 23 11.0889Z" stroke="#0A4F6E" stroke-width="0.2"/>
</g>
<defs>
<filter id="filter0_d_71_459" x="0" y="0" width="46" height="53" filterUnits="userSpaceOnUse" color-interpolation-filters="sRGB">
<feFlood flood-opacity="0" result="BackgroundImageFix"/>
<feColorMatrix in="SourceAlpha" type="matrix" values="0 0 0 0 0 0 0 0 0 0 0 0 0 0 0 0 0 0 127 0" result="hardAlpha"/>
<feOffset dy="3"/>
<feGaussianBlur stdDeviation="1.5"/>
<feComposite in2="hardAlpha" operator="out"/>
<feColorMatrix type="matrix" values="0 0 0 0 0 0 0 0 0 0 0 0 0 0 0 0 0 0 0.45 0"/>
<feBlend mode="normal" in2="BackgroundImageFix" result="effect1_dropShadow_71_459"/>
<feBlend mode="normal" in="SourceGraphic" in2="effect1_dropShadow_71_459" result="shape"/>
</filter>
</defs>
</svg>
