<svg width="32" height="32" viewBox="0 0 32 32" fill="none" xmlns="http://www.w3.org/2000/svg">
<path d="M31.5 15.75C31.5 18.8651 30.5763 21.9102 28.8456 24.5002C27.115 27.0903 24.6552 29.109 21.7773 30.3011C18.8993 31.4932 15.7325 31.8051 12.6773 31.1974C9.62213 30.5897 6.81575 29.0896 4.61307 26.8869C2.41039 24.6843 0.910349 21.8779 0.302633 18.8227C-0.305084 15.7675 0.00681877 12.6007 1.1989 9.72274C2.39098 6.8448 4.40969 4.38499 6.99977 2.65435C9.58984 0.923722 12.6349 0 15.75 0C19.9272 0 23.9332 1.65937 26.8869 4.61307C29.8406 7.56677 31.5 11.5728 31.5 15.75ZM24.75 14.625H11.0813L17.3588 8.31712L15.75 6.75L6.75 15.75L15.75 24.75L17.3588 23.1446L11.0813 16.875H24.75V14.625Z" fill="#FF7620"/>
</svg>
